<?xml version="1.0" encoding="UTF-8"?>
<svg version="1.1" xmlns="http://www.w3.org/2000/svg" width="400" height="480">
<path d="M0 0 C1.44435252 -0.00551503 1.44435252 -0.00551503 2.91788387 -0.01114148 C6.147247 -0.02216206 9.37657793 -0.02601944 12.60595703 -0.02983093 C14.92054852 -0.03609689 17.23513901 -0.0427438 19.54972839 -0.04974365 C27.15440166 -0.07077346 34.7590751 -0.0811461 42.36376953 -0.09111023 C44.98387665 -0.0951584 47.60398367 -0.09927534 50.22409058 -0.10346031 C61.12564328 -0.12032836 72.02719308 -0.13496214 82.92875671 -0.14220905 C85.75556439 -0.14411876 88.58237205 -0.14603912 91.40917969 -0.147995 C92.11171785 -0.14847874 92.814256 -0.14896248 93.5380832 -0.14946087 C104.90688678 -0.15775293 116.27558486 -0.18307692 127.64434242 -0.21557567 C139.33228384 -0.24871275 151.02017178 -0.26666386 162.7081604 -0.26985329 C169.26406786 -0.27220066 175.81980854 -0.28112055 182.37567139 -0.30631447 C188.54809347 -0.32965145 194.72023965 -0.33380561 200.89269447 -0.32355309 C203.15127799 -0.32305896 205.40987536 -0.32934267 207.66841698 -0.34310913 C228.31225971 -0.46184212 244.45956991 2.65620301 259.98095703 17.44795227 C268.95784022 27.10998698 275.597738 40.28885358 275.62299061 53.62995148 C275.62744845 54.72567585 275.6319063 55.82140021 275.63649923 56.95032835 C275.63622268 58.74781735 275.63622268 58.74781735 275.63594055 60.58161926 C275.63961724 61.85895447 275.64329393 63.13628968 275.64708203 64.45233202 C275.65708079 67.99603305 275.6608154 71.53971715 275.66347134 75.08343029 C275.66738075 78.90640161 275.67695869 82.7293596 275.6856842 86.55232239 C275.70543137 95.78434214 275.71551293 105.01636296 275.72441199 114.24839854 C275.72879804 118.59910195 275.73416406 122.94980414 275.73940086 127.30050659 C275.75641193 141.76894122 275.770905 156.23737509 275.7781496 170.70581818 C275.78005941 174.45905559 275.78197975 178.212293 275.78393555 181.9655304 C275.78441929 182.89834589 275.78490303 183.83116139 275.78540143 184.79224402 C275.79369765 199.89545409 275.81902821 214.99858486 275.85151622 230.10176033 C275.88462022 245.61818325 275.90260141 261.13456592 275.90579385 276.65102434 C275.90795592 285.35872854 275.9166602 294.06631711 275.94225502 302.77398682 C275.96400775 310.19154087 275.97199005 317.60895121 275.96228824 325.02653354 C275.95775663 328.8074387 275.95956268 332.5880476 275.97904968 336.36891174 C276.00004655 340.47843191 275.98965409 344.58730084 275.97651672 348.69685364 C275.99297059 350.46757398 275.99297059 350.46757398 276.00975686 352.27406645 C275.88307524 368.75847891 269.48239783 382.78782563 258.18798828 394.63935852 C246.87965008 405.14580298 233.19508055 410.29746374 217.97753906 410.29434204 C217.01463738 410.29801873 216.05173571 410.30169542 215.05965519 410.30548352 C211.83029206 410.31650411 208.60096113 410.32036148 205.37158203 410.32417297 C203.05699054 410.33043893 200.74240006 410.33708584 198.42781067 410.34408569 C190.8231374 410.3651155 183.21846396 410.37548814 175.61376953 410.38545227 C172.99366241 410.38950044 170.37355539 410.39361739 167.75344849 410.39780235 C156.85189578 410.4146704 145.95034598 410.42930418 135.04878235 410.43655109 C132.22197468 410.4384608 129.39516701 410.44038116 126.56835938 410.44233704 C125.86582122 410.44282078 125.16328306 410.44330452 124.43945587 410.44380292 C113.07065229 410.45209497 101.7019542 410.47741896 90.33319664 410.50991771 C78.64525522 410.54305479 66.95736728 410.5610059 55.26937866 410.56419533 C48.71347121 410.5665427 42.15773052 410.57546259 35.60186768 410.60065651 C29.42944559 410.62399349 23.25729941 410.62814765 17.08484459 410.61789513 C14.82626107 410.617401 12.56766371 410.62368471 10.30912209 410.63745117 C-10.33472065 410.75618417 -26.48203085 407.63813903 -42.00341797 392.84638977 C-50.98030115 383.18435506 -57.62019894 370.00548846 -57.64545155 356.66439056 C-57.64990939 355.5686662 -57.65436723 354.47294183 -57.65896016 353.34401369 C-57.6587758 352.14568769 -57.65859144 350.94736169 -57.65840149 349.71272278 C-57.66207818 348.43538757 -57.66575487 347.15805236 -57.66954297 345.84201002 C-57.67954173 342.29830899 -57.68327634 338.75462489 -57.68593228 335.21091175 C-57.68984169 331.38794043 -57.69941962 327.56498244 -57.70814514 323.74201965 C-57.72789231 314.5099999 -57.73797386 305.27797908 -57.74687293 296.0459435 C-57.75125898 291.69524009 -57.756625 287.3445379 -57.7618618 282.99383545 C-57.77887287 268.52540083 -57.79336594 254.05696695 -57.80061054 239.58852386 C-57.80252035 235.83528645 -57.80444069 232.08204904 -57.80639648 228.32881165 C-57.80712209 226.9295884 -57.80712209 226.9295884 -57.80786236 225.50209802 C-57.81615858 210.39888795 -57.84148915 195.29575718 -57.87397716 180.19258171 C-57.90708115 164.67615879 -57.92506235 149.15977612 -57.92825478 133.6433177 C-57.93041686 124.9356135 -57.93912113 116.22802494 -57.96471596 107.52035522 C-57.98646869 100.10280117 -57.99445099 92.68539083 -57.98474918 85.2678085 C-57.98021757 81.48690334 -57.98202362 77.70629444 -58.00151062 73.9254303 C-58.02250748 69.81591013 -58.01211503 65.7070412 -57.99897766 61.5974884 C-58.00994691 60.41700818 -58.02091615 59.23652795 -58.0322178 58.02027559 C-57.90553617 41.53586313 -51.50485877 27.50651641 -40.21044922 15.65498352 C-28.90211102 5.14853906 -15.21754149 -0.0031217 0 0 Z M-33.51123047 20.14717102 C-34.13771484 20.69244446 -34.76419922 21.2377179 -35.40966797 21.79951477 C-45.73733752 31.38305093 -50.43939717 44.32874464 -51.51123047 58.14717102 C-51.64838591 62.19973533 -51.65060581 66.24875009 -51.64494324 70.30335999 C-51.64720879 71.50244185 -51.64947435 72.70152371 -51.65180856 73.93694139 C-51.65702151 77.24359007 -51.65779727 80.55018411 -51.65661418 83.85683298 C-51.65640926 87.43160289 -51.66193769 91.00636483 -51.66667175 94.58113098 C-51.67495894 101.57670382 -51.67772572 108.57226822 -51.67828413 115.56784555 C-51.6787602 121.25735673 -51.68081951 126.94686513 -51.68398476 132.63637543 C-51.69278602 148.78658323 -51.69740495 164.9367844 -51.69665428 181.08699462 C-51.69661433 181.95666728 -51.69657437 182.82633995 -51.6965332 183.72236633 C-51.69649232 184.59310753 -51.69645144 185.46384872 -51.69640932 186.36097601 C-51.69600299 200.46806022 -51.70557065 214.57511772 -51.71967157 228.6821942 C-51.73405428 243.18625296 -51.74094071 257.69029872 -51.74007779 272.19436479 C-51.73974648 280.32964345 -51.74246471 288.46489411 -51.75325584 296.60016632 C-51.7623858 303.52718681 -51.76451567 310.45416659 -51.75774642 317.38119051 C-51.75449379 320.91090651 -51.75437876 324.44054453 -51.76309967 327.97025299 C-51.77248332 331.80788671 -51.76615592 335.64540813 -51.75846863 339.48304749 C-51.76361219 340.58298027 -51.76875575 341.68291305 -51.77405518 342.81617713 C-51.70140762 359.31546779 -48.71777915 373.60939086 -37.51123047 386.14717102 C-36.96595703 386.7736554 -36.42068359 387.40013977 -35.85888672 388.04560852 C-25.75119353 398.93813435 -11.83885743 403.6357291 2.72551012 404.2399677 C5.05812894 404.27756682 7.38882474 404.2853481 9.72174072 404.28088379 C10.60638905 404.28314935 11.49103738 404.2854149 12.40249324 404.28774911 C15.34304944 404.29403856 18.28355895 404.29326302 21.22412109 404.29243469 C23.34226032 404.29542934 25.46039901 404.29883258 27.57853699 404.3026123 C33.31630015 404.31142543 39.05404839 404.31378929 44.79181767 404.31442809 C48.38119981 404.31514013 51.9705782 404.31727737 55.55995941 404.31992531 C68.09531392 404.3291699 80.63065782 404.33326131 93.16601562 404.33247375 C104.82947256 404.33187323 116.49288321 404.34242241 128.15632844 404.35821742 C138.18805478 404.37131599 148.21976603 404.37665668 158.25150084 404.37601835 C164.23496743 404.37576404 170.21839286 404.37857813 176.20185089 404.3891964 C181.83255864 404.39891639 187.4631862 404.39892989 193.09389687 404.39167976 C195.15251852 404.39063876 197.21114527 404.39296784 199.26975822 404.39904022 C218.71516688 404.45265357 236.23806435 403.77859284 251.48876953 390.14717102 C252.11525391 389.60189758 252.74173828 389.05662415 253.38720703 388.49482727 C263.71487659 378.91129111 268.41693624 365.9655974 269.48876953 352.14717102 C269.62592497 348.09460671 269.62814487 344.04559195 269.6224823 339.99098206 C269.62474786 338.79190019 269.62701341 337.59281833 269.62934762 336.35740066 C269.63456058 333.05075197 269.63533633 329.74415793 269.63415325 326.43750906 C269.63394832 322.86273915 269.63947675 319.28797721 269.64421082 315.71321106 C269.652498 308.71763823 269.65526478 301.72207382 269.65582319 294.72649649 C269.65629927 289.03698532 269.65835857 283.34747691 269.66152382 277.65796661 C269.67032508 261.50775881 269.67494402 245.35755764 269.67419335 229.20734742 C269.67415339 228.33767476 269.67411343 227.46800209 269.67407227 226.57197571 C269.67403138 225.70123451 269.6739905 224.83049332 269.67394838 223.93336603 C269.67354205 209.82628182 269.68310971 195.71922432 269.69721063 181.61214784 C269.71159334 167.10808908 269.71847978 152.60404333 269.71761686 138.09997725 C269.71728554 129.96469859 269.72000378 121.82944794 269.73079491 113.69417572 C269.73992486 106.76715523 269.74205473 99.84017545 269.73528548 92.91315153 C269.73203285 89.38343553 269.73191782 85.85379751 269.74063873 82.32408905 C269.75002238 78.48645533 269.74369498 74.64893391 269.73600769 70.81129456 C269.74372304 69.16139538 269.74372304 69.16139538 269.75159425 67.47816491 C269.67894668 50.97887425 266.69531821 36.68495118 255.48876953 24.14717102 C254.67085938 23.20744446 254.67085938 23.20744446 253.83642578 22.24873352 C243.7287326 11.35620769 229.81639649 6.65861294 215.25202894 6.05437434 C212.91941012 6.01677522 210.58871432 6.00899394 208.25579834 6.01345825 C207.37115001 6.0111927 206.48650168 6.00892714 205.57504582 6.00659293 C202.63448962 6.00030348 199.69398012 6.00107902 196.75341797 6.00190735 C194.63527874 5.9989127 192.51714005 5.99550946 190.39900208 5.99172974 C184.66123891 5.98291661 178.92349068 5.98055275 173.1857214 5.97991395 C169.59633925 5.97920191 166.00696086 5.97706468 162.41757965 5.97441673 C149.88222514 5.96517214 137.34688124 5.96108073 124.81152344 5.96186829 C113.1480665 5.96246881 101.48465585 5.95191963 89.82121062 5.93612462 C79.78948429 5.92302605 69.75777304 5.91768536 59.72603822 5.9183237 C53.74257163 5.918578 47.7591462 5.91576391 41.77568817 5.90514565 C36.14498042 5.89542565 30.51435286 5.89541215 24.8836422 5.90266228 C22.82502054 5.90370328 20.7663938 5.9013742 18.70778084 5.89530182 C-0.73762782 5.84168847 -18.26052528 6.51574921 -33.51123047 20.14717102 Z " fill="#FFFFFF" transform="translate(90.51123046875,36.85282897949219)"/>
<path d="M0 0 C1.30517075 -0.0071553 2.61034149 -0.01431061 3.95506287 -0.02168274 C5.40492225 -0.02452301 6.85478188 -0.02723474 8.30464172 -0.02983093 C9.82903193 -0.03609634 11.35342061 -0.04274321 12.87780762 -0.04974365 C17.88766925 -0.07077965 22.89753116 -0.08114653 27.90742493 -0.09111023 C29.63302438 -0.09515815 31.35862367 -0.09927508 33.08422279 -0.10346031 C41.19257777 -0.12251204 49.30092364 -0.13674235 57.40929669 -0.14507228 C66.76334729 -0.15484094 76.11716102 -0.18115077 85.47112817 -0.22157317 C92.70437687 -0.25175623 99.93755777 -0.26654329 107.17086822 -0.26985329 C111.48935157 -0.27220156 115.80758186 -0.28113254 120.12599754 -0.30631447 C124.19148801 -0.32963824 128.25655959 -0.3338113 132.32209969 -0.32355309 C133.81037161 -0.32305863 135.29866444 -0.32935234 136.78687286 -0.34310913 C146.56160788 -0.42837486 153.06770798 -0.03327182 160.58320618 6.64717102 C166.32914909 13.21396293 168.07333211 18.52241762 168.04486084 27.31825256 C168.05009752 28.12486682 168.0553342 28.93148108 168.06072956 29.76253819 C168.0756935 32.45688049 168.07643392 35.15103226 168.07710266 37.84541321 C168.0847266 39.7807904 168.0931545 41.71616456 168.10232544 43.65153503 C168.12425486 48.90375565 168.13306733 54.15591806 168.13815188 59.40817928 C168.14179746 62.69182206 168.14803859 65.97544963 168.15515327 69.25908661 C168.17964289 80.72113717 168.19269851 92.18314251 168.19624329 103.6452179 C168.1998776 114.31868891 168.22976689 124.99187221 168.27164787 135.66525531 C168.30637282 144.83744118 168.32179211 154.00953181 168.32248932 163.18178296 C168.32328141 168.65613215 168.33198908 174.1301882 168.36048698 179.6044693 C168.38670505 184.75593543 168.38885178 189.90686616 168.37283134 195.05836868 C168.37101981 196.94410242 168.37768075 198.82986722 168.39365005 200.71553421 C168.55498947 221.01150265 168.55498947 221.01150265 160.9656744 229.06185532 C156.60941521 233.13629519 152.81935356 235.14717102 146.77070618 235.14717102 C146.80551086 236.03920227 146.84031555 236.93123352 146.87617493 237.85029602 C146.90324524 239.02076477 146.93031555 240.19123352 146.95820618 241.39717102 C146.99301086 242.55732727 147.02781555 243.71748352 147.06367493 244.91279602 C146.73613778 248.52880608 146.33770332 249.64454998 143.77070618 252.14717102 C140.95161438 252.60127258 140.95161438 252.60127258 137.57148743 252.53779602 C136.36299133 252.5249054 135.15449524 252.51201477 133.90937805 252.49873352 C132.01542297 252.44846008 132.01542297 252.44846008 130.08320618 252.39717102 C128.8089679 252.37912415 127.53472961 252.36107727 126.22187805 252.34248352 C123.07073776 252.29527543 119.92109477 252.22943486 116.77070618 252.14717102 C114.77070618 247.14717102 114.77070618 247.14717102 114.77070618 236.14717102 C85.73070618 236.14717102 56.69070618 236.14717102 26.77070618 236.14717102 C26.77070618 240.43717102 26.77070618 244.72717102 26.77070618 249.14717102 C26.11070618 250.13717102 25.45070618 251.12717102 24.77070618 252.14717102 C21.9733429 252.48774719 21.9733429 252.48774719 18.45039368 252.44013977 C17.19355774 252.4304718 15.9367218 252.42080383 14.64179993 252.4108429 C13.32308899 252.38570618 12.00437805 252.36056946 10.64570618 252.33467102 C9.30587714 252.31962585 7.96603214 252.30593715 6.62617493 252.2936554 C3.34061776 252.25819974 0.05586036 252.20877951 -3.22929382 252.14717102 C-4.22929382 249.14717102 -4.22929382 249.14717102 -4.19413757 246.18623352 C-4.16558724 242.62152099 -4.3089559 239.59734778 -5.22929382 236.14717102 C-7.57099709 234.21739261 -9.74854724 233.37436386 -12.58085632 232.31123352 C-17.72013148 230.05237807 -21.20292078 225.6637401 -23.29767609 220.52759933 C-24.38004786 216.60015137 -24.51946094 212.93868593 -24.51017761 208.90016174 C-24.51909098 207.6779897 -24.51909098 207.6779897 -24.52818441 206.43112731 C-24.54548575 203.70915453 -24.54856864 200.98735842 -24.55155945 198.26533508 C-24.56082092 196.31025317 -24.57087093 194.35517485 -24.58164978 192.40010071 C-24.60785149 187.09417 -24.62077844 181.78828985 -24.6296711 176.48230457 C-24.63553964 173.16515997 -24.64375056 169.84802909 -24.65267944 166.53089142 C-24.68001625 156.14583726 -24.69935634 145.76081458 -24.70708323 135.37572694 C-24.71604381 123.39942117 -24.75114171 111.42357204 -24.80908442 99.4474051 C-24.85235261 90.18180227 -24.87249359 80.91632775 -24.87516546 71.65062499 C-24.87725895 66.12032611 -24.88901797 60.59045685 -24.92480469 55.06026459 C-24.95782704 49.85620728 -24.96204866 44.65290116 -24.94452667 39.44877625 C-24.94298916 37.54368321 -24.95162907 35.63854927 -24.97144318 33.73355865 C-25.1550363 14.97560982 -25.1550363 14.97560982 -18.22929382 7.14717102 C-15.78007507 4.89326477 -15.78007507 4.89326477 -13.54179382 3.58467102 C-12.79542664 3.12963196 -12.04905945 2.6745929 -11.28007507 2.20576477 C-7.39356077 0.1995831 -4.31617172 0.01621914 0 0 Z M-14.22929382 13.14717102 C-16.7205403 18.66615545 -17.66648774 23.31286844 -17.61024475 29.38240051 C-17.61492472 30.17171699 -17.61960469 30.96103347 -17.62442648 31.77426863 C-17.63631634 34.39809339 -17.62694305 37.02139 -17.61747742 39.6452179 C-17.62154579 41.5348745 -17.62688917 43.42452872 -17.63340759 45.31417847 C-17.6470553 50.43190687 -17.64179303 55.54945334 -17.63227034 60.66718483 C-17.62466057 66.0299439 -17.63172301 71.39268768 -17.63642883 76.75544739 C-17.64188254 85.7602365 -17.63470485 94.76495173 -17.6204071 103.76972961 C-17.60408136 114.17169538 -17.60937014 124.57348473 -17.62588632 134.97544622 C-17.63951213 143.91580128 -17.64141548 152.85610331 -17.63357031 161.7964654 C-17.62889983 167.13201952 -17.62825179 172.46749079 -17.63817978 177.80303955 C-17.64686306 182.81983614 -17.64080257 187.83640587 -17.62349701 192.85317802 C-17.61953945 194.6913611 -17.62065366 196.52956335 -17.627285 198.36773872 C-17.63551962 200.88272839 -17.62515622 203.3969974 -17.61024475 205.91194153 C-17.61693692 206.63413486 -17.62362908 207.35632819 -17.63052404 208.10040617 C-17.55455843 214.73532215 -16.07955921 220.07126352 -11.66679382 225.02217102 C-4.52017774 230.25276318 5.8514682 229.43222784 14.26264954 229.39009094 C15.4722937 229.39198929 16.68193787 229.39388763 17.92823792 229.39584351 C21.22020131 229.39889555 24.51199613 229.39308237 27.80394053 229.38289046 C31.27703712 229.37402336 34.75013048 229.37586921 38.22323608 229.37625122 C44.06273151 229.37531712 49.90217472 229.36667457 55.74165344 229.35298157 C62.44206468 229.33732527 69.14241859 229.33198141 75.84284681 229.33271712 C83.03478954 229.33339954 90.22671088 229.32641324 97.41864705 229.31727052 C99.46163407 229.31516443 101.50461751 229.31443279 103.54760551 229.3140316 C111.95617165 229.30922885 120.36296245 229.26873078 128.77070618 229.14717102 C129.75082294 229.13345585 130.73093971 229.11974068 131.74075699 229.10560989 C134.36229355 229.0571403 136.98072541 228.97933436 139.60102844 228.88667297 C140.32822806 228.87322185 141.05542768 228.85977072 141.80466366 228.84591198 C147.1151226 228.6000864 151.38532143 227.0758812 155.77070618 224.14717102 C160.69403528 218.21392825 160.92007405 212.79808646 160.91114807 205.34863281 C160.91411919 204.57004671 160.91709032 203.79146062 160.92015147 202.989281 C160.92881356 200.38394108 160.9303446 197.77864724 160.93183899 195.17329407 C160.93646888 193.30378624 160.94149377 191.43427935 160.94688416 189.56477356 C160.95999263 184.48824846 160.96644995 179.41173658 160.97089481 174.33519721 C160.97382771 171.16263956 160.97793291 167.99008551 160.98239899 164.81752968 C160.99606909 154.88845705 161.00573844 144.95939267 161.00960088 135.03031129 C161.01408223 123.57369676 161.03163579 112.11720151 161.06060147 100.66062325 C161.08222285 91.80102027 161.09230538 82.94145083 161.093642 74.08182174 C161.09468958 68.79203664 161.10058779 63.50236373 161.11846161 58.21260643 C161.13495038 53.23609176 161.13709383 48.25977354 161.1283226 43.28324127 C161.12755269 41.45956458 161.13188883 39.63587728 161.14178085 37.81222725 C161.15452012 35.31680557 161.14861309 32.82207764 161.13819885 30.32666016 C161.14625526 29.61020236 161.15431166 28.89374457 161.1626122 28.15557593 C161.1090061 22.63887028 160.13726642 16.91763284 156.46037412 12.61320418 C151.43476395 8.12668193 146.18283275 6.89791833 139.60498047 6.89320374 C138.38968658 6.88756409 137.1743927 6.88192444 135.92227173 6.87611389 C134.58879029 6.88000193 133.25530945 6.88409823 131.92182922 6.88838196 C130.50699178 6.88566963 129.09215576 6.88210733 127.67732239 6.87776184 C123.84451563 6.86866188 120.01181683 6.87217286 116.17900825 6.87852001 C112.15934449 6.88359538 108.13968977 6.87888401 104.12002563 6.87574768 C97.36725716 6.87211126 90.61453246 6.87689733 83.86177063 6.88642883 C76.07059005 6.89729954 68.27951428 6.89379658 60.48833627 6.88277602 C53.7866348 6.87367811 47.08496476 6.87243048 40.38325912 6.87765336 C36.38625328 6.88076102 32.38929656 6.88121592 28.39229393 6.87458038 C24.63052128 6.86877153 20.86888262 6.87286809 17.10712433 6.8843689 C15.07999349 6.88824389 13.05285124 6.88235916 11.02572632 6.87611389 C-2.57570843 6.8622323 -2.57570843 6.8622323 -14.22929382 13.14717102 Z M2.77070618 236.14717102 C3.10070618 239.11717102 3.43070618 242.08717102 3.77070618 245.14717102 C8.72070618 245.14717102 13.67070618 245.14717102 18.77070618 245.14717102 C20.35045708 238.83233118 20.35045708 238.83233118 18.77070618 236.14717102 C13.49070618 236.14717102 8.21070618 236.14717102 2.77070618 236.14717102 Z M122.77070618 236.14717102 C122.77070618 239.11717102 122.77070618 242.08717102 122.77070618 245.14717102 C125.24994419 245.17402197 127.72889457 245.1939365 130.20820618 245.20967102 C130.91525696 245.21804993 131.62230774 245.22642883 132.3507843 245.23506165 C134.15764177 245.2437069 135.9645822 245.19937114 137.77070618 245.14717102 C138.10070618 244.81717102 138.43070618 244.48717102 138.77070618 244.14717102 C138.77070618 241.50717102 138.77070618 238.86717102 138.77070618 236.14717102 C133.49070618 236.14717102 128.21070618 236.14717102 122.77070618 236.14717102 Z " fill="#FFFFFF" transform="translate(128.2292938232422,128.8528289794922)"/>
<path d="M0 0 C4.46201235 0.36220135 6.60745212 2.04385232 9.8125 5.0625 C10.68003906 5.8771875 11.54757813 6.691875 12.44140625 7.53125 C13.70791016 8.75328125 13.70791016 8.75328125 15 10 C15.73089844 10.6909375 16.46179688 11.381875 17.21484375 12.09375 C23.85298231 18.51528903 28.76919669 25.29665338 33.1875 33.375 C33.52072266 33.97513916 33.85394531 34.57527832 34.19726562 35.19360352 C38.72073629 43.72061876 40.51523687 51.94432926 40.4375 61.5625 C40.45748047 62.44357422 40.47746094 63.32464844 40.49804688 64.23242188 C40.49084129 73.99598581 36.52938973 81.85235397 30 89 C21.80025379 96.66234213 13.44852237 98.62971993 2.3671875 98.34375 C-7.81155177 97.30462116 -14.96644204 90.8777741 -21.3125 83.25 C-26.12623127 76.48192006 -27.77809247 68.16997093 -27 60 C-25.32343285 50.99789172 -20.63186618 44.18575322 -15.45703125 36.796875 C-8.87432182 27.26694713 -2.52651928 16.34933522 -1.4375 4.625 C-1 1 -1 1 0 0 Z M6 14 C5.505 15.175625 5.01 16.35125 4.5 17.5625 C0.03988508 27.52758194 -5.11842316 36.89444019 -11.3125 45.875 C-16.77241056 53.8791163 -19.90940361 59.88983936 -18.51953125 69.6953125 C-17.81963805 72.80010188 -16.71484425 75.32484298 -15 78 C-14.34 78.33 -13.68 78.66 -13 79 C-12.649375 77.845 -12.29875 76.69 -11.9375 75.5 C-10.05433305 70.48417144 -7.03816186 66.51072847 -3 63 C-0.2734375 61.7734375 -0.2734375 61.7734375 2 61 C1.97679687 61.77085937 1.95359375 62.54171875 1.9296875 63.3359375 C1.91164062 64.33882812 1.89359375 65.34171875 1.875 66.375 C1.85179687 67.37273437 1.82859375 68.37046875 1.8046875 69.3984375 C1.72783152 72.16262173 1.72783152 72.16262173 4 74 C4.81832722 72.10667466 5.62942268 70.21022267 6.4375 68.3125 C6.88996094 67.25675781 7.34242188 66.20101562 7.80859375 65.11328125 C9.41891429 60.90532889 10.138654 57.18058613 10.0625 52.6875 C10.041875 51.470625 10.02125 50.25375 10 49 C18.67861687 52.38677732 23.11555779 59.48986441 26.95703125 67.60546875 C28.02254782 70.05176708 29.02506114 72.51633222 30 75 C32.37641094 71.4353836 32.58856436 69.25150161 33 65 C33.09861328 64.01 33.09861328 64.01 33.19921875 63 C34.0243462 47.52174723 24.82444176 32.64966685 15.15234375 21.32421875 C12.59032272 18.55760801 10.05104348 16.21200652 7 14 C6.67 14 6.34 14 6 14 Z M16 64 C15.67386719 64.81984375 15.34773438 65.6396875 15.01171875 66.484375 C14.57472656 67.56203125 14.13773438 68.6396875 13.6875 69.75 C13.25824219 70.81734375 12.82898438 71.8846875 12.38671875 72.984375 C11.15066055 75.67236635 9.78681043 77.6734785 8 80 C8 80.66 8 81.32 8 82 C4.04 82.495 4.04 82.495 0 83 C-1.32 81.02 -2.64 79.04 -4 77 C-6.29827312 78.87938172 -6.29827312 78.87938172 -6.3125 81.9375 C-6.2422465 84.91336358 -6.2422465 84.91336358 -4.875 86.75 C-0.02480887 89.98346076 5.28447798 90.70509244 11 90 C15.39410806 88.85234387 19.05429778 87.58682564 22 84 C23.78227294 77.22736282 22.4733163 72.06702652 19 66 C18.01 65.34 17.02 64.68 16 64 Z " fill="#FFFFFF" transform="translate(193,234)"/>
<path d="M0 0 C10.79597283 7.90257978 18.18701683 18.17558767 20.58203125 31.45703125 C20.9999417 37.83016558 20.9999417 37.83016558 18.58203125 41.45703125 C15.93604205 41.75408504 13.52348251 41.85616197 10.87524414 41.8293457 C10.07997818 41.83299637 9.28471222 41.83664703 8.46534729 41.84040833 C5.82824555 41.84853499 3.19175428 41.83488528 0.5546875 41.8203125 C-1.27372741 41.81979409 -3.10214289 41.82031104 -4.93055725 41.82182312 C-8.76653339 41.8217333 -12.60229979 41.8112847 -16.43823242 41.79321289 C-21.35917197 41.77054137 -26.27980444 41.76997767 -31.20078182 41.77673054 C-34.97797888 41.78007 -38.75510575 41.77344059 -42.53228951 41.7636013 C-44.34680374 41.75974741 -46.16132579 41.75860187 -47.97584343 41.76018715 C-50.51130961 41.76055742 -53.04638025 41.74794791 -55.58178711 41.73168945 C-56.71103607 41.73540558 -56.71103607 41.73540558 -57.86309814 41.73919678 C-61.59433754 41.70095121 -63.23113163 41.58158933 -66.41796875 39.45703125 C-67.81648842 30.54146833 -63.82545591 19.29475756 -58.66796875 12.01953125 C-57.62385061 10.79740823 -56.53787662 9.61010268 -55.41796875 8.45703125 C-54.42990234 7.42835938 -54.42990234 7.42835938 -53.421875 6.37890625 C-39.43903011 -7.08051664 -16.69799866 -10.65542726 0 0 Z M-51.41796875 15.45703125 C-51.86011719 15.94558594 -52.30226562 16.43414062 -52.7578125 16.9375 C-57.32570957 22.51165846 -56.96023549 25.43949834 -58.41796875 33.45703125 C-49.83796875 33.45703125 -41.25796875 33.45703125 -32.41796875 33.45703125 C-34.63577294 29.02142288 -37.35739658 26.14549975 -40.73828125 22.578125 C-42.41796875 20.45703125 -42.41796875 20.45703125 -42.41796875 17.45703125 C-41.42796875 17.12703125 -40.43796875 16.79703125 -39.41796875 16.45703125 C-34.58021302 19.08078675 -31.48933909 22.39543247 -28.16796875 26.64453125 C-25.27016244 30.59508472 -25.27016244 30.59508472 -21.41796875 33.45703125 C-18.86434271 33.54361694 -16.33842455 33.57265641 -13.78515625 33.5546875 C-13.03332062 33.55327255 -12.28148499 33.5518576 -11.50686646 33.55039978 C-9.10219365 33.5447959 -6.69761348 33.53224282 -4.29296875 33.51953125 C-2.66406384 33.51451675 -1.03515748 33.50995375 0.59375 33.50585938 C4.58987952 33.49482522 8.58593967 33.47755804 12.58203125 33.45703125 C12.35374634 31.54446533 12.35374634 31.54446533 12.12084961 29.59326172 C12.03524277 28.8760495 11.94963593 28.15883728 11.86143494 27.41989136 C10.65755903 18.96245109 3.98807137 12.54340962 -2.41796875 7.45703125 C-19.9749698 -2.09572212 -38.00234011 0.17812086 -51.41796875 15.45703125 Z " fill="#FFFFFF" transform="translate(223.41796875,155.54296875)"/>
</svg>
