<svg id="expnaded" xmlns="http://www.w3.org/2000/svg" viewBox="0 0 96 96" fill="white" stroke="white"><path d="M49.09,13.12a5.54,5.54,0,0,1-5-3.13c-3.58,1.3-8.75,3.13-9.61,3.13A5.56,5.56,0,0,1,34.5,2c.71,0,6.24,1.49,10,2.52a5.53,5.53,0,0,1,9.28,0C57.47,3.49,63,2,63.7,2a5.55,5.55,0,0,1,5.51,6.27h0a5.61,5.61,0,0,1-4.65,4.78c-1.14.17-6.68-1.71-10.47-3.07A5.54,5.54,0,0,1,49.09,13.12ZM44.7,7.71a1.12,1.12,0,0,1,.47.11,1,1,0,0,1,.5.64,3.54,3.54,0,0,0,6.86,0,1,1,0,0,1,.5-.64,1,1,0,0,1,.81-.05c4.48,1.62,9.61,3.3,10.46,3.3h0A3.58,3.58,0,0,0,67.23,8,3.57,3.57,0,0,0,63.7,4c-.59.06-5.7,1.41-10.18,2.65a1,1,0,0,1-1.18-.55,3.55,3.55,0,0,0-6.48,0,1,1,0,0,1-1.19.55C40.19,5.41,35.09,4.06,34.46,4a3.56,3.56,0,0,0,0,7.12C35.14,11,40,9.35,44.36,7.77A1,1,0,0,1,44.7,7.71Zm23.52.44h0Z"/><path d="M55.21,20.87H43a1,1,0,0,1-1-1V18.32a2.56,2.56,0,0,1,2.55-2.56h9.12a2.56,2.56,0,0,1,2.55,2.56v1.55A1,1,0,0,1,55.21,20.87ZM44,18.87H54.21v-.55a.56.56,0,0,0-.55-.56H44.54a.56.56,0,0,0-.55.56Z"/><path d="M55.62,26.46h-13a3.8,3.8,0,1,1,0-7.59h13a3.8,3.8,0,1,1,0,7.59Zm-13-5.59a1.8,1.8,0,1,0,0,3.59h13a1.8,1.8,0,1,0,0-3.59Z"/><path d="M51.38,17.76H46.86a1,1,0,0,1-1-1V11.52a1,1,0,1,1,2,0v4.24h2.52V11.52a1,1,0,0,1,2,0v5.24A1,1,0,0,1,51.38,17.76Z"/><path d="M81.45,52.19H77.17a3.7,3.7,0,0,1-3.7-3.69V36.09a3.7,3.7,0,0,1,3.7-3.69h4.28a3.7,3.7,0,0,1,3.69,3.69V48.5A3.7,3.7,0,0,1,81.45,52.19ZM77.17,34.4a1.7,1.7,0,0,0-1.7,1.69V48.5a1.7,1.7,0,0,0,1.7,1.69h4.28a1.69,1.69,0,0,0,1.69-1.69V36.09a1.69,1.69,0,0,0-1.69-1.69Z"/><path d="M14.13,60.09a1,1,0,0,1-1-1V50.87a16.42,16.42,0,0,1,16.4-16.4h5.13A5.38,5.38,0,0,0,40,29.09V25a1,1,0,1,1,2,0v4.09a7.39,7.39,0,0,1-7.38,7.38H29.53a14.42,14.42,0,0,0-14.4,14.4v8.22A1,1,0,0,1,14.13,60.09Z"/><path d="M74.47,36.47H63.54a7.39,7.39,0,0,1-7.38-7.38V25a1,1,0,0,1,2,0v4.09a5.38,5.38,0,0,0,5.38,5.38H74.47a1,1,0,0,1,0,2Z"/><path d="M26.28,60.09a1,1,0,0,1-1-1c-.08-3.79.91-6.69,2.95-8.64,2.61-2.49,6.29-2.8,8.92-2.62a3.6,3.6,0,0,1,3.27,2.8,7.18,7.18,0,0,0,7,5.64H51c4.55,0,6.52-3.24,7.36-5.95a4,4,0,0,1,3.85-2.84H74.47a1,1,0,0,1,0,2H62.16a2,2,0,0,0-1.94,1.43c-.85,2.75-3.2,7.36-9.27,7.36H47.41a9.2,9.2,0,0,1-8.95-7.22A1.58,1.58,0,0,0,37,49.84c-2.22-.14-5.32.09-7.4,2.08-1.61,1.54-2.4,3.94-2.33,7.15a1,1,0,0,1-1,1Z"/><path d="M24.91,66.7H15.17a4.31,4.31,0,1,1,0-8.61h9.74a4.31,4.31,0,0,1,0,8.61Zm-9.74-6.61a2.31,2.31,0,1,0,0,4.61h9.74a2.31,2.31,0,0,0,0-4.61Z"/><path d="M20,94a8.6,8.6,0,0,1-8.48-8.28c0-4.15,2.83-7.93,5.12-11A15.32,15.32,0,0,0,19.07,71,1,1,0,0,1,21,71a15,15,0,0,0,2.39,3.76c2.28,3,5.12,6.82,5.12,11A8.6,8.6,0,0,1,20,94Zm0-20.5c-.48.74-1.09,1.55-1.77,2.45-2.1,2.8-4.71,6.29-4.71,9.77A6.63,6.63,0,0,0,20,92a6.63,6.63,0,0,0,6.48-6.28c0-3.48-2.62-7-4.72-9.77C21.12,75.05,20.51,74.24,20,73.5Z"/></svg>